<?xml version="1.0" standalone="no"?>
<!DOCTYPE svg PUBLIC "-//W3C//DTD SVG 20010904//EN"
 "http://www.w3.org/TR/2001/REC-SVG-20010904/DTD/svg10.dtd">
<svg version="1.0" xmlns="http://www.w3.org/2000/svg"
 width="700.000000pt" height="700.000000pt" viewBox="0 0 700.000000 700.000000"
 preserveAspectRatio="xMidYMid meet">
<metadata>
Created by potrace 1.14, written by Peter Selinger 2001-2017
</metadata>
<g transform="translate(0.000000,700.000000) scale(0.100000,-0.100000)"
fill="#000000" stroke="none">
<path d="M3535 5580 l-40 -5 1 -1887 0 -1888 -65 -1 c-36 0 -89 -1 -117 -1
l-52 0 0 -189 c1 -186 1 -189 22 -190 30 -1 514 -1 557 0 l36 1 -1 986 c-1
542 3 988 7 991 4 3 455 5 1000 5 l993 -1 -1 184 c0 101 -3 187 -7 191 -4 4
-453 6 -998 6 -934 -2 -990 -1 -991 16 0 9 -1 414 -1 900 l-1 882 -66 0 c-36
1 -104 2 -151 3 -47 1 -103 0 -125 -3z"/>
<path d="M1769 4463 c-1 -5 -2 -90 -2 -190 l-2 -183 465 0 465 0 -785 -785
c-431 -431 -781 -788 -777 -792 4 -4 64 -65 134 -135 l127 -128 918 918 918
917 0 193 0 192 -730 0 c-401 0 -730 -3 -731 -7z"/>
<path d="M4455 2884 c-66 -68 -121 -128 -123 -133 -3 -9 780 -801 792 -801 7
0 267 262 264 266 -34 42 -794 794 -802 793 -6 -1 -65 -57 -131 -125z"/>
</g>
</svg>
